<svg xmlns="http://www.w3.org/2000/svg" version="1.1" xmlns:xlink="http://www.w3.org/1999/xlink" xmlns:svgjs="http://svgjs.dev/svgjs" width="2000" height="1914" viewBox="0 0 2000 1914"><g transform="matrix(1,0,0,1,0.4299773162121028,0.7763297288636295)"><svg viewBox="0 0 258 247" data-background-color="#ffffff" preserveAspectRatio="xMidYMid meet" height="1914" width="2000" xmlns="http://www.w3.org/2000/svg" xmlns:xlink="http://www.w3.org/1999/xlink"><g id="tight-bounds" transform="matrix(1,0,0,1,-0.05546707379136251,-0.09997365579206985)"><svg viewBox="0 0 258.1109341475827 247.2" height="247.2" width="258.1109341475827"><g><svg viewBox="0 0 258.1109341475827 247.2" height="247.2" width="258.1109341475827"><g><svg viewBox="0 0 258.1109341475827 247.2" height="247.2" width="258.1109341475827"><g id="textblocktransform"><svg viewBox="0 0 258.1109341475827 247.2" height="247.2" width="258.1109341475827" id="textblock"><g><svg viewBox="0 0 258.1109341475827 247.2" height="247.2" width="258.1109341475827"><path d="M257.507 53.02C256.293 27.36 252.835 20.227 252.835 20.227 242.217-6.202 228.967-0.506 217.063 3.292 196.046 3.446 175.114 9.091 154.146 12.119 110.135 12.581 65.748 4.986 21.955 23.717 17.841 29.464-4.268 24.846 0.732 56.304 2.042 69.39 6.823 83.913 6.678 95.922 7.333 98.026 8.243 93.202 8.631 96.23 9.99 104.39 12.211 100.541 14.031 105.365 11.495 118.246 13.315 128.971 15.05 140.21 11.992 143.135 8.073 141.749 6.313 151.449 6.131 158.479 5.149 157.145 4.069 156.837 3.28 156.632 1.69 157.402 1.957 159.608 2.867 167.152-1.04 171.514 1.411 178.904-0.275 186.91 2.576 193.838 2.188 202.511 2.139 204.255 2.406 205.744 2.831 206.154 4.712 208.361 1.969 212.672 2.261 217.342 21.554 249.262 42.486 227.195 62.253 241.872 67.386 231.608 63.527 245.516 65.578 243.36 67.179 240.846 68.344 251.263 70.152 245.362 70.431 243.668 70.007 239.665 71.002 240.435 71.523 240.846 71.985 240.743 72.057 238.382 72.167 234.841 71.208 237.048 70.953 235.201 73.708 225.861 73.028 248.081 75.613 247.158 75.491 244.438 74.739 240.538 76.28 241.051 77.809 237.151 77.858 233.918 79.217 242.693 79.265 244.592 79.508 245.926 79.896 246.85 84.143 237.305 88.366 250.237 92.819 245.926 95.549 241.205 98.171 248.492 100.937 246.696 101.908 245.259 102.891 242.693 103.825 247.004 115.268 247.928 127.463 244.079 138.311 247.158 167.3 241.41 198.279 249.518 228.845 241.923 236.053 238.998 243.54 234.841 250.566 231.506 250.566 231.506 256.257 222.371 256.257 181.316S257.47 145.393 257.652 112.703C257.834 80.013 258.684 78.679 257.47 53.02Z" opacity="1" fill="#ee3e38" data-fill-palette-color="tertiary"></path><g transform="matrix(1,0,0,1,55.76832000000002,26.230666666666668)"><svg width="146.5742941475827" viewBox="3.9000000953674316 -32.25 24.649999618530273 32.75" height="194.73866666666666" data-palette-color="#ffffff"><path d="M20.8-12.8Q24.7-6.6 28.55-1.6L28.55-1.6 28.45-0.85Q25.2 0.3 21.8 0.5L21.8 0.5 21.1-0.05Q17.5-6.25 15.25-10.85L15.25-10.85 10.4-10.85 10.4-10.2 10.7 0 3.9 0 4.25-9.6 3.9-32.2 16.25-32.25Q21.3-32.25 24.05-29.78 26.8-27.3 26.8-22.7L26.8-22.7Q26.8-19.6 25.23-17.03 23.65-14.45 20.8-12.8L20.8-12.8ZM10.7-27.05L10.5-16.1 15.45-15.9Q19.7-17.35 19.7-22.05L19.7-22.05Q19.7-24.6 18.32-25.88 16.95-27.15 14.1-27.25L14.1-27.25 10.7-27.05Z" opacity="1" transform="matrix(1,0,0,1,0,0)" fill="#ffffff" class="wordmark-text-0" data-fill-palette-color="quaternary" id="text-0"></path></svg></g></svg></g></svg></g></svg></g><g></g></svg></g><defs></defs></svg><rect width="258.1109341475827" height="247.2" fill="none" stroke="none" visibility="hidden"></rect></g></svg></g></svg>